<?xml version="1.0"?>
<svg width="410" height="200" xmlns="http://www.w3.org/2000/svg">
 <g>
  <title>Layer 1</title>
  <g>
   <path d="m2.233,2.59599v193.333011h36.267h12h145.065994v-36.266998v-12v-24.267006v-12v-108.800007h-193.332994l0,0.00099l0,0.00001zm181.332994,181.304004h-133.065994v-24.266998h133.065994v24.296005l0,-0.029007zm0,-36.237991h-133.065994v-24.267006h133.065994v24.267006l0,0zm-145.065994,-36.265999v36.266991v12v24.266998h-24.267v-169.333993h169.332994v96.800004h-145.065994l0,0l0,0z" fill="#29B473"/>
   <path d="m38.5,87.128998h120.799988v-48.266998h-120.799988v48.266998l0,0zm12,-36.266998h96.799988v24.266998h-96.799988v-24.266998l0,0z" fill="#29B473"/>
  </g>
  <path d="m212.233002,2.59599v193.333011h193.333008v-108.800003v-12v-24.266998v-12v-36.266999h-193.333008l0,0.00099zm181.333008,72.533008h-108.800018v48.267006h72.533997v24.266991h-96.799988v-96.799995h133.06601v24.265999l0,0zm-145.06601,-36.266998v120.800003h120.799988v-48.267006h-72.53299v-24.266998h96.799988v96.799995h-169.333984v-169.331994h169.333008v24.266999h-145.06601l0,-0.000999l0,0l0,0z" fill="#29B473"/>
 </g>
</svg>