<svg display="none" version="1.1" xmlns="http://www.w3.org/2000/svg" xmlns:xlink="http://www.w3.org/1999/xlink" width="608" height="32" viewBox="0 0 608 32">
    <defs>
      <g id="icon-heart">
        <path class="path1" d="M32 11.192c0-5.077-4.116-9.192-9.192-9.192-2.699 0-5.126 1.163-6.808 3.015-1.682-1.852-4.109-3.015-6.808-3.015-5.077 0-9.192 4.116-9.192 9.192 0 2.699 1.163 5.126 3.015 6.808h-0.015l10 10c1 1 2 2 3 2s2-1 3-2l9.985-10c1.852-1.682 3.015-4.109 3.015-6.808zM26.296 15.039l-10.124 10.133c-0.052 0.052-0.11 0.11-0.172 0.171-0.061-0.061-0.119-0.119-0.172-0.171l-10.124-10.133c-1.099-0.998-1.704-2.364-1.704-3.846 0-2.863 2.329-5.192 5.192-5.192 1.482 0 2.848 0.605 3.846 1.704l2.962 3.262 2.962-3.262c0.998-1.099 2.364-1.704 3.846-1.704 2.863 0 5.192 2.329 5.192 5.192 0 1.482-0.605 2.848-1.704 3.846z"></path>
      </g>
      <g id="icon-mail">
        <path class="path1" d="M26.667 0h-21.333c-2.934 0-5.334 2.4-5.334 5.334v21.332c0 2.936 2.4 5.334 5.334 5.334h21.333c2.934 0 5.333-2.398 5.333-5.334v-21.332c0-2.934-2.399-5.334-5.333-5.334zM26.667 4c0.25 0 0.486 0.073 0.688 0.198l-11.355 9.388-11.355-9.387c0.202-0.125 0.439-0.198 0.689-0.198h21.333zM5.334 28c-0.060 0-0.119-0.005-0.178-0.013l7.051-9.78-0.914-0.914-7.293 7.293v-19.098l12 14.512 12-14.512v19.098l-7.293-7.293-0.914 0.914 7.051 9.78c-0.058 0.008-0.117 0.013-0.177 0.013h-21.333z"></path>
      </g>
      <g id="icon-twitter">
        <path class="path1" d="M32 6.076c-1.177 0.522-2.443 0.875-3.771 1.034 1.355-0.813 2.396-2.099 2.887-3.632-1.269 0.752-2.674 1.299-4.169 1.593-1.198-1.276-2.904-2.073-4.792-2.073-3.626 0-6.565 2.939-6.565 6.565 0 0.515 0.058 1.016 0.17 1.496-5.456-0.274-10.294-2.888-13.532-6.86-0.565 0.97-0.889 2.097-0.889 3.301 0 2.278 1.159 4.287 2.921 5.465-1.076-0.034-2.088-0.329-2.974-0.821-0.001 0.027-0.001 0.055-0.001 0.083 0 3.181 2.263 5.834 5.266 6.437-0.551 0.15-1.131 0.23-1.73 0.23-0.423 0-0.834-0.041-1.235-0.118 0.835 2.608 3.26 4.506 6.133 4.559-2.247 1.761-5.078 2.81-8.154 2.81-0.53 0-1.052-0.031-1.566-0.092 2.905 1.863 6.356 2.95 10.064 2.95 12.076 0 18.679-10.004 18.679-18.68 0-0.285-0.006-0.568-0.019-0.849 1.283-0.926 2.396-2.082 3.276-3.398z"></path>
      </g>
      <g id="icon-feed">
        <path class="path1" d="M4.259 23.467c-2.35 0-4.259 1.917-4.259 4.252 0 2.349 1.909 4.244 4.259 4.244 2.358 0 4.265-1.895 4.265-4.244-0-2.336-1.907-4.252-4.265-4.252zM0.005 10.873v6.133c3.993 0 7.749 1.562 10.577 4.391 2.825 2.822 4.384 6.595 4.384 10.603h6.16c-0-11.651-9.478-21.127-21.121-21.127zM0.012 0v6.136c14.243 0 25.836 11.604 25.836 25.864h6.152c0-17.64-14.352-32-31.988-32z"></path>
      </g>
      <g id="icon-github">
        <path class="path1" d="M0 17.388c0 1.45 0.136 2.762 0.407 3.935s0.647 2.193 1.127 3.059c0.48 0.866 1.090 1.627 1.831 2.285s1.544 1.195 2.41 1.612c0.866 0.417 1.854 0.756 2.965 1.017s2.245 0.443 3.403 0.548c1.158 0.104 2.431 0.156 3.818 0.156 1.398 0 2.676-0.052 3.834-0.156s2.295-0.287 3.411-0.548c1.116-0.261 2.11-0.6 2.981-1.017s1.68-0.954 2.425-1.612c0.746-0.657 1.361-1.419 1.846-2.285s0.863-1.886 1.134-3.059c0.271-1.174 0.407-2.486 0.407-3.935 0-2.587-0.866-4.825-2.597-6.713 0.094-0.25 0.18-0.535 0.258-0.853s0.151-0.772 0.219-1.361c0.068-0.589 0.042-1.27-0.078-2.042s-0.342-1.56-0.665-2.363l-0.235-0.047c-0.167-0.031-0.441-0.023-0.822 0.024s-0.824 0.141-1.33 0.282c-0.506 0.141-1.158 0.412-1.956 0.814s-1.64 0.905-2.527 1.51c-1.523-0.417-3.615-0.626-6.275-0.626-2.65 0-4.736 0.209-6.259 0.626-0.887-0.605-1.734-1.108-2.543-1.51s-1.453-0.673-1.933-0.814c-0.48-0.141-0.928-0.232-1.346-0.274s-0.681-0.055-0.79-0.039c-0.11 0.016-0.196 0.034-0.258 0.055-0.323 0.803-0.545 1.591-0.665 2.363s-0.146 1.453-0.078 2.042c0.068 0.589 0.141 1.043 0.219 1.361s0.164 0.602 0.258 0.853c-1.732 1.888-2.598 4.126-2.598 6.713zM3.928 21.315c0-1.502 0.683-2.879 2.050-4.131 0.407-0.376 0.881-0.66 1.424-0.853s1.155-0.302 1.839-0.329c0.683-0.026 1.338-0.021 1.964 0.016s1.398 0.086 2.316 0.149c0.918 0.063 1.711 0.094 2.379 0.094s1.46-0.031 2.378-0.094c0.918-0.063 1.69-0.112 2.316-0.149s1.28-0.042 1.964-0.016c0.683 0.026 1.296 0.136 1.839 0.329s1.017 0.477 1.424 0.853c1.367 1.231 2.050 2.608 2.050 4.131 0 0.897-0.112 1.693-0.337 2.386s-0.511 1.275-0.861 1.745c-0.349 0.469-0.834 0.868-1.455 1.197s-1.226 0.582-1.815 0.759c-0.589 0.177-1.346 0.316-2.269 0.415s-1.747 0.159-2.472 0.18c-0.725 0.021-1.646 0.031-2.762 0.031s-2.037-0.010-2.762-0.031c-0.725-0.021-1.549-0.081-2.472-0.18s-1.68-0.237-2.269-0.415c-0.589-0.177-1.194-0.43-1.815-0.759s-1.106-0.728-1.455-1.197c-0.349-0.469-0.636-1.051-0.861-1.745s-0.336-1.489-0.336-2.386zM20 21c0-1.657 0.895-3 2-3s2 1.343 2 3c0 1.657-0.895 3-2 3s-2-1.343-2-3zM8 21c0-1.657 0.895-3 2-3s2 1.343 2 3c0 1.657-0.895 3-2 3s-2-1.343-2-3z"></path>
      </g>
      <g id="icon-github2">
        <path class="path1" d="M7.352 7.772c-1.587 0-2.953 0.525-4.096 1.575-1.19 1.12-1.786 2.521-1.786 4.201 0 1.12 0.324 2.171 0.978 3.151 0.584 0.91 1.193 1.494 1.993 1.751v0.070c-0.8 0.326-1.155 1.143-1.155 2.451 0 1.004 0.355 1.751 1.155 2.241v0.070c-2.208 0.723-3.219 2.065-3.219 4.026 0 1.704 0.742 2.953 2.19 3.746 1.143 0.63 2.612 0.945 4.386 0.945 4.318 0 6.481-1.809 6.481-5.427 0-2.264-1.666-3.653-5.004-4.166-0.77-0.116-1.353-0.397-1.749-0.84-0.303-0.303-0.454-0.607-0.454-0.91 0-0.863 0.467-1.366 1.401-1.506 1.424-0.21 2.585-0.869 3.484-1.978s1.348-2.41 1.348-3.904c0-0.467-0.141-0.969-0.328-1.505 0.607-0.14 1.033-0.269 1.353-0.385v-3.606c-1.408 0.56-2.718 0.84-3.839 0.84-0.98-0.56-1.995-0.84-3.138-0.84zM7.738 25.243c1.961 0 2.941 0.595 2.941 1.786 0 1.261-0.899 1.89-2.696 1.89-2.054 0-3.081-0.607-3.081-1.82-0-1.237 0.945-1.856 2.836-1.856zM7.492 16c-1.47 0-2.206-0.805-2.206-2.416 0-1.727 0.735-2.591 2.206-2.591 0.7 0 1.249 0.269 1.645 0.805 0.327 0.49 0.49 1.074 0.49 1.751 0 1.634-0.712 2.451-2.136 2.451zM18.137 0c-0.677 0-1.254 0.257-1.733 0.77s-0.718 1.132-0.718 1.856c0 0.7 0.239 1.307 0.718 1.821s1.056 0.77 1.733 0.77c0.653 0 1.22-0.256 1.698-0.77s0.718-1.12 0.718-1.821c0-0.724-0.239-1.342-0.718-1.855s-1.045-0.77-1.698-0.77zM20.098 8h-3.956c0.047 0.448-0.020 1.126-0.020 2.223v10.888c0 1.12 0.067 2.024 0.020 2.376h3.956c-0.047-0.512-0.169-1.396-0.169-2.586v-10.748c-0-1.027 0.122-1.705 0.169-2.153zM28.823 20.131c-1.027 0-1.534-0.782-1.534-2.346v-6.457h1.558c0.28 0 0.532-0.015 0.847 0.008s0.442 0.008 0.602 0.008v-3.343h-3.008v-1.488c0-0.56 0.088-1.072 0.158-1.392h-4.061c0.070 0.32 0.063 0.809 0.063 1.462v1.418h-1.76v3.343c0.48-0.070 0.909-0.105 1.212-0.105l0.548 0.035v6.337c0 1.961 0.249 3.396 0.739 4.306 0.654 1.214 1.801 1.821 3.504 1.821 1.214 0 2.285-0.233 3.085-0.7v-3.501c-0.64 0.397-1.231 0.595-1.954 0.595z"></path>
      </g>
      <g id="icon-apple">
        <path class="path1" d="M24.734 17.003c-0.040-4.053 3.305-5.996 3.454-6.093-1.88-2.751-4.808-3.127-5.851-3.171-2.492-0.252-4.862 1.467-6.127 1.467-1.261 0-3.213-1.43-5.28-1.392-2.716 0.040-5.221 1.579-6.619 4.012-2.822 4.897-0.723 12.151 2.028 16.123 1.344 1.944 2.947 4.127 5.051 4.049 2.026-0.081 2.793-1.311 5.242-1.311s3.138 1.311 5.283 1.271c2.18-0.041 3.562-1.981 4.897-3.931 1.543-2.255 2.179-4.439 2.216-4.551-0.048-0.022-4.252-1.632-4.294-6.473zM20.705 5.11c1.117-1.355 1.871-3.235 1.665-5.11-1.609 0.066-3.559 1.072-4.713 2.423-1.036 1.199-1.942 3.113-1.699 4.951 1.796 0.14 3.629-0.913 4.747-2.264z"></path>
      </g>
      <g id="icon-linkedin">
        <path class="path1" d="M26.625 0h-21.25c-2.956 0-5.375 2.419-5.375 5.375v21.25c0 2.956 2.419 5.375 5.375 5.375h21.25c2.956 0 5.375-2.419 5.375-5.375v-21.25c0-2.956-2.419-5.375-5.375-5.375zM12 26h-4v-14h4v14zM10 10c-1.105 0-2-0.895-2-2s0.895-2 2-2 2 0.895 2 2-0.895 2-2 2zM26 26h-4v-8c0-1.105-0.895-2-2-2s-2 0.895-2 2v8h-4v-14h4v2.483c0.825-1.133 2.086-2.483 3.5-2.483 2.485 0 4.5 2.239 4.5 5v9z"></path>
      </g>
    </defs>
  </svg>